<svg version="1" xmlns="http://www.w3.org/2000/svg" width="933.333" height="933.333" viewBox="0 0 700.000000 700.000000"><path d="M192.2 61.7L34 62v40h36.9l.5 3.2c.7 4.3 2.6 30.3 2.6 35.1v3.7H-.3l.6 23.2c1 36.2 5.2 65.2 13.7 94.1 15 51.5 38.2 93.3 75.4 136.2l5 5.6 8.7 114.2c4.9 62.8 8.8 115.6 8.9 117.3v3.2l237.5.7c130.7.4 237.8.6 238 .3.2-.2 4.3-50.8 8.9-112.3 4.7-61.6 8.8-114.7 9.2-118l.6-6-12.3 12.1c-49 47.9-108.6 79.3-175.9 92.8-17.3 3.4-46.1 6.6-60.7 6.6H350v-41h7.3c3.9 0 12.2-.5 18.2-1 66.6-6 125.8-31 176-74.1 10-8.6 27.4-26.1 35.2-35.4 7.8-9.3 21.1-27.6 23.3-32 1.9-3.9 3.5-22.9 13.5-159 1.4-18.6 4.6-58.6 5.1-63.3l.5-5.2H666V61l-157.7.2c-86.8.2-229 .4-316.1.5zm-109.4 192c2.9 38.4 5.4 70.8 5.6 72 .5 3.5-.9 1.9-5.7-6.5-20.1-34.9-32.9-71.7-38.8-111.7-1-7.1-1.9-15.4-1.9-18.3V184h35.6l5.2 69.7z"/></svg>