<?xml version="1.0"?>
<svg xmlns="http://www.w3.org/2000/svg" xmlns:xlink="http://www.w3.org/1999/xlink" version="1.1" id="Capa_1" x="0px" y="0px" viewBox="0 0 512 512" style="enable-background:new 0 0 512 512;" xml:space="preserve" width="512px" height="512px" class=""><g><g>
	<g>
		<path d="M457.6,105l2.296-30H487V45H25v30h27.104l2.296,30H0v15c0,65.46,24.418,127.158,68.92,174.728L82.104,467h347.792    l13.184-172.272C487.582,247.158,512,185.46,512,120v-15H457.6z M30.492,135h26.204l8.059,105.299    C45.259,209.417,33.029,173.511,30.492,135z M402.104,437H109.896l-8.651-113.038C145.539,357.714,199.36,376,256,376    s110.461-18.286,154.755-52.038L402.104,437z M414.01,281.421C373.231,321.348,317.442,346,256,346    s-117.231-24.652-158.011-64.579L82.192,75h347.616L414.01,281.421z M447.246,240.299L455.304,135h26.204    C478.971,173.511,466.741,209.417,447.246,240.299z" data-original="#000000" class="active-path" data-old_color="#000000" fill="#FFFFFF"/>
	</g>
</g></g> </svg>
