<?xml version="1.0"?>
<svg xmlns="http://www.w3.org/2000/svg" xmlns:xlink="http://www.w3.org/1999/xlink" version="1.1" id="Capa_1" x="0px" y="0px" viewBox="0 0 512 512" style="enable-background:new 0 0 512 512;" xml:space="preserve" width="512px" height="512px" class=""><g><g>
	<g>
		<path d="M457.6,105l2.296-30H487V45H25v30h27.104l2.296,30H0v15c0,68.38,26.629,132.667,74.98,181.019    C123.333,349.371,187.62,376,256,376s132.667-26.629,181.02-74.981C485.371,252.667,512,188.38,512,120v-15H457.6z M30.492,135    h26.204l8.059,105.299C45.259,209.417,33.029,173.511,30.492,135z M447.246,240.299L455.304,135h26.204    C478.971,173.511,466.741,209.417,447.246,240.299z" data-original="#000000" class="active-path" data-old_color="#000000" fill="#FFFFFF"/>
	</g>
</g><g>
	<g>
		<path d="M256,406c-67.95,0-132.27-23.554-183.674-66.771L82.104,467h347.792l9.778-127.771C388.27,382.446,323.95,406,256,406z" data-original="#000000" class="active-path" data-old_color="#000000" fill="#FFFFFF"/>
	</g>
</g></g> </svg>
